# xmcd
#
# Track frame offsets:
#	150
#	17427
#	38060
#	49868
#	65643
#	113788
#	128091
#	146223
#	165561
#	179149
#	194071
#	209719
#	224823
#	242875
#	257033
#	276458
#	292130
#	310365
#	327420
#	341207
#
# Disc length: 4751 seconds
#
# Revision: 0
# Processed by: cddbd v1.5.2PL0 Copyright (c) Steve Scherf et al.
# Submitted via: dBpowerAMP V4.0
#
DISCID=5f128d14
DTITLE=Various Artist - Campeãs da Terra Vol. 1 - Viola Sertaneja
DYEAR=1900
DGENRE=Country
TTITLE0=Chrystian e Ralf - Inspiração Cabocla
TTITLE1=Brenno Reis e Marco Viola - Nóis é Jeca mais é Jóia
TTITLE2=Zico e Zeca - Catira
TTITLE3=Liu e Leo - Boiadeiro Errante
TTITLE4=Marco Brasil - O Sentido da Viola
TTITLE5=Ronaldo Viola e Praiana - Rei da Pecuária
TTITLE6=Goiano e Paranaense - Meu Recanto, Meu Paraíso
TTITLE7=Liu e Leo - Sementinha
TTITLE8=Marechal e Rondon - O Capiau
TTITLE9=Sulino e Marrueiro - O Peão e o Ricaço
TTITLE10=As Irmãs Galvão - Viola Sem Defeito
TTITLE11=Dino Franco e Mourai - Caboclo na Cidade
TTITLE12=Milionário e José Rico - Caminheiro
TTITLE13=Dino Franco e Mourai - Minha Mensagem
TTITLE14=Tião Carreiro e Pardinho - Golpe de Mestre
TTITLE15=Sérgio Reis e Filhos - Escolta de Vagalumes
TTITLE16=Pedro Bento e Zé da Estrada - Museu de Cristo
TTITLE17=Palmeira e Biá - Couro de Boi
TTITLE18=Tavarez e Zé Negrão - Canoeiro
TTITLE19=Craveiro e Cravinho - Franguinho na Panela
EXTD=
EXTT0=
EXTT1=
EXTT2=
EXTT3=
EXTT4=
EXTT5=
EXTT6=
EXTT7=
EXTT8=
EXTT9=
EXTT10=
EXTT11=
EXTT12=
EXTT13=
EXTT14=
EXTT15=
EXTT16=
EXTT17=
EXTT18=
EXTT19=
PLAYORDER=
